<svg width="8" height="8" viewBox="0 0 8 8" fill="none" xmlns="http://www.w3.org/2000/svg">
<path d="M0.501453 0.000217047C0.402166 0.000243129 0.305143 0.0298867 0.222787 0.0853579C0.140432 0.140829 0.0764859 0.219608 0.039125 0.311622C0.00176419 0.403635 -0.00731398 0.504704 0.0130511 0.601906C0.0334162 0.699107 0.0822992 0.788026 0.153451 0.857293L3.29425 3.99893L0.153451 7.14056C0.105551 7.18656 0.0673085 7.24166 0.0409637 7.30263C0.014619 7.36361 0.000701394 7.42922 2.58339e-05 7.49564C-0.000649726 7.56206 0.0119304 7.62794 0.0370296 7.68944C0.0621287 7.75093 0.0992422 7.80679 0.146197 7.85376C0.193151 7.90073 0.249002 7.93785 0.310479 7.96296C0.371957 7.98806 0.437824 8.00065 0.504224 7.99997C0.570624 7.9993 0.636222 7.98537 0.697176 7.95902C0.758129 7.93267 0.813214 7.89442 0.859203 7.84651L4 4.70487L7.14079 7.84651C7.18678 7.89442 7.24187 7.93267 7.30282 7.95902C7.36378 7.98538 7.42937 7.9993 7.49577 7.99997C7.56217 8.00065 7.62804 7.98807 7.68952 7.96296C7.751 7.93785 7.80685 7.90073 7.8538 7.85376C7.90076 7.8068 7.93787 7.75093 7.96297 7.68944C7.98807 7.62794 8.00065 7.56206 7.99997 7.49564C7.9993 7.42922 7.98538 7.36361 7.95903 7.30263C7.93269 7.24166 7.89445 7.18656 7.84655 7.14056L4.70575 3.99893L7.84655 0.857293C7.91867 0.78717 7.96793 0.696889 7.98787 0.598281C8.00781 0.499673 7.99751 0.397339 7.95831 0.304689C7.91911 0.212039 7.85284 0.133396 7.76819 0.0790653C7.68354 0.0247347 7.58446 -0.00274856 7.48392 0.000217047C7.35426 0.00408165 7.23119 0.0582876 7.14079 0.151351L4 3.29299L0.859203 0.151351C0.812693 0.103528 0.757071 0.0655138 0.695625 0.0395555C0.634179 0.0135972 0.568155 0.000220936 0.501453 0.000217047Z" fill="black"/>
</svg>
