<svg width="10" height="10" viewBox="0 0 10 10" fill="none" xmlns="http://www.w3.org/2000/svg">
<path d="M7.33255 6.44891H6.86916L6.70492 6.29062C7.40881 5.4699 7.77248 4.3502 7.57305 3.16015C7.29736 1.53043 5.9365 0.228997 4.29409 0.0296783C1.81288 -0.275162 -0.275323 1.81182 0.0296957 4.29158C0.229131 5.93302 1.53133 7.29308 3.16201 7.56861C4.35275 7.76793 5.47311 7.40446 6.29431 6.70099L6.45269 6.86513V7.32825L8.94563 9.81973C9.18613 10.0601 9.57913 10.0601 9.81963 9.81973C10.0601 9.57938 10.0601 9.1866 9.81963 8.94625L7.33255 6.44891ZM3.8131 6.44891C2.35253 6.44891 1.17352 5.27058 1.17352 3.81087C1.17352 2.35115 2.35253 1.17283 3.8131 1.17283C5.27367 1.17283 6.45269 2.35115 6.45269 3.81087C6.45269 5.27058 5.27367 6.44891 3.8131 6.44891Z" fill="black"/>
</svg>
